<svg xmlns="http://www.w3.org/2000/svg" xmlns:xlink="http://www.w3.org/1999/xlink" viewBox="0 0 325.6 125.03" preserveAspectRatio="xMidYMid meet">
  <defs>
    <linearGradient id="vatsim-gradient-1" x1="80.97" y1="83.96" x2="80.97" y2="21.61" gradientUnits="userSpaceOnUse">
      <stop offset="0.15" stop-color="#29b473" />
      <stop offset="0.31" stop-color="#27a095" />
      <stop offset="0.48" stop-color="#2590af" />
      <stop offset="0.62" stop-color="#2486bf" />
      <stop offset="0.74" stop-color="#2483c5" />
    </linearGradient>
    <linearGradient id="vatsim-gradient-2" x1="131.94" y1="83.96" x2="131.94" y2="22.32" xlink:href="#vatsim-gradient-1" />
    <linearGradient id="vatsim-gradient-3" x1="282.16" y1="85.9" x2="282.16" y2="23.55" xlink:href="#vatsim-gradient-1" />
    <linearGradient id="vatsim-gradient-4" x1="29.68" y1="83.96" x2="29.68" y2="22.32" xlink:href="#vatsim-gradient-1" />
    <linearGradient id="vatsim-gradient-5" x1="229.15" y1="85.19" x2="229.15" y2="23.55" xlink:href="#vatsim-gradient-1" />
    <linearGradient id="vatsim-gradient-6" x1="186.95" y1="85.9" x2="186.95" y2="22.85" xlink:href="#vatsim-gradient-1" />
    <style>
      .vatsim-white { fill: #fff; }
    </style>
  </defs>
  <g>
    <path d="M84.68 22.41a1.24 1.24 0 0 0-1.23-.8h-5.11a1.21 1.21 0 0 0-1.14.8l-25.8 59.7A1.31 1.31 0 0 0 52.54 84h10.83a1.17 1.17 0 0 0 1.15-.79L67.6 76h26.68l3.08 7.13a1.14 1.14 0 0 0 1.15.88h10.83a1.3 1.3 0 0 0 1.23-1.76zm9.56 35.37-.78-.38-8.16-3.9a2.31 2.31 0 0 0-1.63-.2 1.56 1.56 0 0 0-1.13 1 7.31 7.31 0 0 0-.5 2.16c-.05.66 0 1.32-.05 2l-.06 2.92a.24.24 0 0 0 .09.21c.43.35.85.7 1.29 1l1.6 1.22c.15.11.29.23.45.33a.36.36 0 0 1 .16.24c.08.52.17 1 .25 1.56v.22l-4.4-1.26c-.14.36-.27.71-.4 1.07l-.39-1.07-4.43 1.25a1.17 1.17 0 0 1 0-.22c.08-.52.17-1 .25-1.56a.33.33 0 0 1 .16-.24c.15-.1.3-.22.45-.33l1.6-1.22 1.29-1a.24.24 0 0 0 .08-.21l.02-2.96v-2a7.32 7.32 0 0 0-.51-2.16 1.57 1.57 0 0 0-1.12-1 2.31 2.31 0 0 0-1.63.2l-8.16 3.9-.79.38c0-.38 0-.73-.07-1.09a1.43 1.43 0 0 1 .64-1.37c.39-.31 9.35-7.1 9.35-7.1l1.72-1.3a.29.29 0 0 0 .13-.26c0-1.08 0-2.16.07-3.24a15.7 15.7 0 0 1 .2-2.38 3.09 3.09 0 0 1 .36-1.15.94.94 0 0 1 .87-.47 1 1 0 0 1 .88.47 3.29 3.29 0 0 1 .27 1.16 18.79 18.79 0 0 1 .2 2.38c0 1.08 0 2.16.07 3.24a.27.27 0 0 0 .13.26l1.71 1.3 9.36 7.1a1.47 1.47 0 0 1 .64 1.37c-.04.4-.05.75-.08 1.13z" fill="url(#vatsim-gradient-1)" />
    <path d="M154.88 22.32h-45.79a1.43 1.43 0 0 0-1.32 1.41V33a1.35 1.35 0 0 0 1.32 1.32h16.11v48.32a1.28 1.28 0 0 0 1.24 1.36h11a1.36 1.36 0 0 0 1.32-1.32V34.29h16.11a1.27 1.27 0 0 0 1.24-1.29v-9.27a1.35 1.35 0 0 0-1.23-1.41z" fill="url(#vatsim-gradient-2)" />
    <path d="M312.54 23.55H301.8a2.53 2.53 0 0 0-1.94 1.32L282.25 62l-17.7-37.16a2.49 2.49 0 0 0-1.94-1.32h-10.83a1.28 1.28 0 0 0-1.23 1.32V84a1.2 1.2 0 0 0 1.23 1.23h11a1.28 1.28 0 0 0 1.33-1.23V54.2l15.59 30.38a2.5 2.5 0 0 0 1.85 1.32h1.32a2.64 2.64 0 0 0 1.93-1.32l15.42-30.21V84a1.27 1.27 0 0 0 1.32 1.23h11a1.2 1.2 0 0 0 1.24-1.23V24.87a1.28 1.28 0 0 0-1.24-1.32z" fill="url(#vatsim-gradient-3)" />
    <path d="M58.1 22.32H47.44a2.35 2.35 0 0 0-1.85 1.32L29.74 60.89l-16-37.25a2.21 2.21 0 0 0-1.85-1.32H1.3a1.26 1.26 0 0 0-1.15 1.85L25.87 83c.26.71.52 1 1.23 1h5.19a1.4 1.4 0 0 0 1.24-.88l25.71-58.95a1.31 1.31 0 0 0-1.14-1.85z" fill="url(#vatsim-gradient-4)" />
    <path d="M234.7 23.55h-11a1.36 1.36 0 0 0-1.32 1.32v59a1.35 1.35 0 0 0 1.32 1.32h11a1.28 1.28 0 0 0 1.23-1.32v-59a1.28 1.28 0 0 0-1.23-1.32z" fill="url(#vatsim-gradient-5)" />
    <path d="M188.31 48c-8.36-1.68-11.8-3.53-11.8-7.14 0-3.43 4.05-5.37 10.39-5.37a23.21 23.21 0 0 1 14.27 4.4 1.34 1.34 0 0 0 1.67-.17l6.87-7.22a1.31 1.31 0 0 0-.09-1.94c-4.57-3.61-11.36-7.66-23.24-7.66C169.29 22.85 163 34.12 163 41.78c0 8.54 5.37 15.32 22.9 18.76 8.63 1.67 11.53 3 11.53 6.51 0 4.76-6.78 6.26-10.48 6.26-8.63 0-13.21-3.35-14.88-4.67a1.45 1.45 0 0 0-1.76.09l-6.87 7a1.34 1.34 0 0 0 0 1.76c6.25 6.26 14.18 8.37 23.43 8.37 18 .04 24.13-11.06 24.13-18.81 0-10.48-6.75-16.2-22.69-19.05z" fill="url(#vatsim-gradient-6)" />
    <text x="317.95" y="27.39" fill="#1698b2" font-family="'Ubuntu Titling','UbuntuTitling-Bold','Ubuntu','Segoe UI',Arial,sans-serif" font-weight="700" font-size="6" letter-spacing=".02em">TM</text>
    <path class="vatsim-white" d="M202.48 54.44a49.92 49.92 0 0 1-10.9 31.18c.63-.08 1.22-.18 1.81-.28a51.18 51.18 0 0 0 10.34-30.9v-1.17c-.41-.26-.82-.53-1.27-.78 0 .64.02 1.29.02 1.95zM232.48 54.43a79.72 79.72 0 0 1-6.14 30.76h1.34a81.28 81.28 0 0 0 0-61.64h-1.35a79.8 79.8 0 0 1 6.15 30.88zM152.28 26.73a26.87 26.87 0 0 1 3.83.27v-1.26a28.54 28.54 0 0 0-3.83-.26 29 29 0 0 0-27.08 18.71v4.4a27.75 27.75 0 0 1 27.08-21.86zM195 54.44a42.4 42.4 0 0 1-.82 8.33 7.84 7.84 0 0 1 1.16.62 44 44 0 0 0 .91-9 44.68 44.68 0 0 0-.24-4.65l-1.31-.38a43.83 43.83 0 0 1 .3 5.08zM292.48 54.44a140.32 140.32 0 0 1-1.05 17.13l1.57-3.15c.45-4.6.69-9.26.69-14a142.33 142.33 0 0 0-.79-15l-1.05 2.2q.62 6.38.63 12.82zM250.56 24.62a102.75 102.75 0 0 1 0 59.56 1.16 1.16 0 0 0 1 1 104.26 104.26 0 0 0 0-61.58 1.27 1.27 0 0 0-1 1.02zM130.82 54.44a21.41 21.41 0 0 0 7.94 16.64v-1.67a20.11 20.11 0 0 1 0-29.95v-1.67a21.42 21.42 0 0 0-7.94 16.65z" />
</svg>